<?xml version="1.0" encoding="UTF-8" standalone="no"?>
<svg
   xmlns:dc="http://purl.org/dc/elements/1.1/"
   xmlns:cc="http://creativecommons.org/ns#"
   xmlns:rdf="http://www.w3.org/1999/02/22-rdf-syntax-ns#"
   xmlns:svg="http://www.w3.org/2000/svg"
   xmlns="http://www.w3.org/2000/svg"
   xml:space="preserve"
   viewBox="0 0 431.20001 173.10001"
   width="100"
   y="0px"
   x="0px"
   id="Ebene_1"
   version="1.1"><metadata
     id="metadata102"><rdf:RDF><cc:Work
         rdf:about=""><dc:format>image/svg+xml</dc:format><dc:type
           rdf:resource="http://purl.org/dc/dcmitype/StillImage" /><dc:title></dc:title></cc:Work></rdf:RDF></metadata><defs
     id="defs100" /><rect
     style="display:none;fill:#00305d;fill-rule:evenodd"
     id="rect87"
     height="194"
     width="439"
     display="none"
     y="-10.9"
     x="-3.5" /><g
     transform="translate(-424,-313.9)"
     id="g95"><polygon
       style="fill:#00305d;fill-rule:evenodd;fill-opacity:1"
       id="polygon89"
       points="462.8,314 424,484.9 489.5,484.9 528.4,314 " /><path
       style="fill:#00305d;fill-rule:evenodd;fill-opacity:1"
       id="path91"
       d="m 778.3,487 c 37.7,0 46.6,-6.6 53.8,-36.8 0,0 8.5,-38.8 13.8,-63.6 0.6,-2.8 0.5,-5.1 -1.2,-7.6 -2.6,-4 -6.6,-3.6 -11.7,-3.5 h -48.9 l -7.7,33.8 7,-0.1 -5.6,24.2 c -3.1,12.3 -7.5,14 -11.4,14 -3.9,0 -8,-2.8 -8,-6.7 0,-2.6 0.5,-5.1 1.2,-7.7 l 15.6,-66.8 c 2.6,-12.6 5.1,-12.6 17.5,-12.6 l 53.1,-0.1 9.4,-39.5 h -82.9 c -35.2,0 -37.7,4 -47.3,11 -18.1,13.5 -34.5,115.9 -34.5,127.1 0,31.2 18.6,34.9 51,34.9 z" /><path
       style="fill:#00305d;fill-rule:evenodd;fill-opacity:1"
       id="path93"
       d="m 631.1,485.8 c 13.3,0 19.3,-4.6 25.3,-9.3 13.3,-8.8 21.9,-60.7 21.9,-63.6 0,-12.3 0,-23.5 -17,-28.9 v -0.5 c 18.4,-2.1 23.1,-32.4 23.1,-45.4 0,-24.2 -20.7,-24.2 -34.5,-24.2 h -95.1 c 0,0 -5,22.6 -6,26.6 L 520.9,462 c -1,4.2 -5.8,23.6 -5.8,23.6 14.6,0.6 116,0.2 116,0.2 z m -31,-79.6 h 6.5 c 6.6,0 9.8,0.9 9.8,6.7 0,4 -2.5,13.3 -3.2,16.3 -2.8,12.3 -5.6,16 -14.9,16 H 591 Z m 13,-57.3 h 4.4 c 6,0 8.6,3.1 8.6,7.2 0,12.3 -4.9,18.9 -13.8,18.9 h -5.1 z" /></g></svg>